# xmcd CD database file
#
# Track frame offsets:
#	150
#	23605
#	61115
#	82305
#	114760
#	142615
#	159715
#	188807
#	215020
#	245527
#	270542
#
# Disc length: 3932 seconds
#
# Revision: 3
# Processed by: cddbd v1.5.2PL0 Copyright (c) Steve Scherf et al.
# Submitted via: CDex 1.70beta2
#
DISCID=8e0f5a0b
DTITLE=下山武徳 - ACOUSTIC ～always live on
DYEAR=2000
DGENRE=Acoustic
TTITLE0=Dance And Dance
TTITLE1=My Poor Spirit Get On My Nerves
TTITLE2=Hold My Guitar
TTITLE3=The End Of Summer
TTITLE4=Always Live On
TTITLE5=I Don't Worry About Tomorrow
TTITLE6=Inner Voice
TTITLE7=Fairy Eyes
TTITLE8=Pray
TTITLE9=Too Young And Vane
TTITLE10=Dear Japan
EXTD=YEAR: 2000
EXTT0=
EXTT1=
EXTT2=
EXTT3=
EXTT4=
EXTT5=
EXTT6=
EXTT7=
EXTT8=
EXTT9=
EXTT10=
PLAYORDER=
